<?xml version="1.0" encoding="utf-8"?>
<!-- Generator: Adobe Illustrator 25.4.1, SVG Export Plug-In . SVG Version: 6.00 Build 0)  -->
<svg version="1.1" id="Calque_1" xmlns="http://www.w3.org/2000/svg" xmlns:xlink="http://www.w3.org/1999/xlink" x="0px" y="0px"
	 viewBox="0 0 849.7 193.8" style="enable-background:new 0 0 849.7 193.8;" xml:space="preserve">
<style type="text/css">
	.st0{fill:#FFD400;}
	.st1{fill:#2B2B2A;}
</style>
<g>
	<path class="st0" d="M142.1,3.1C138.8,15.6,135,30,129.8,51c-5.1,20.4-8.6,34.3-11.5,48.2H76.1c2.7-8.5,4.5-14.6,6.9-23.7
		c1.3-5.2,3.2-11.3,5.1-17.4l-0.6-0.1l-8.6,17.9L67.5,99.2H47.4V75.5c0-4.1,0.1-10.9,0.1-17.5H47c-1,6-2,11.8-3.5,17.8
		c-2.2,9.1-3.7,15.6-5.2,23.4H0C4,85.3,7.6,71.4,12.7,51C17.9,30,21.4,15.6,24,3.1h56.2c-1.3,7.8-2.6,14.4-3.8,22.7
		c-0.8,4.5-1.8,10.8-2.6,16.8h0.8c2.3-6,4.5-12.3,6-16.8c2.7-7.9,5.1-15,7.6-22.7L142.1,3.1L142.1,3.1z"/>
	<path class="st0" d="M240.3,14.6c-2.6,9-4.1,15.4-9.6,37c-5,20.2-8.3,33.7-11.7,47.5h-45.5c0.8-2.7,1.5-5.2,2.3-8.1
		c0.4-1.8,0.9-3.6,1.4-5.4h-0.5c-4.5,7.6-11.9,14.6-25.8,14.6c-20,0-26.5-11.5-17.3-48.2c7.8-31.1,21.4-38.6,35-38.6
		c11.3,0,19.7,3.2,22.8,12l0.5-0.1c0.3-1.3,0.5-2.6,0.9-4c0.6-2.6,1.3-4.7,1.8-6.9L240.3,14.6L240.3,14.6z M189.2,40.6
		c-0.6-0.1-1.4-0.1-2.2-0.1c-4,0-6.1,2.3-9.2,14.6c-2.7,10.9-1.9,13.7,0.4,13.7c2.6,0,4.6-2.9,6.8-11.3L189.2,40.6z"/>
	<path class="st0" d="M304.7,32.8c7.3-14.1,16.1-19,24.7-19c2.3,0,3.8,0.1,5.5,0.3c-5.8,18.2-9.7,32.5-14.7,52.8
		c-1.8-0.6-3.5-1-5.4-1c-4.7,0-7.2,3.1-8.7,9c-1.9,7.7-3.7,15.5-5.2,24.3h-48.3c3.3-11.8,6.5-24.6,11.2-42.9
		c4.4-17.7,7.4-29.7,10-41.6h35.7c-2,6.4-3.8,12-5.8,18.2L304.7,32.8L304.7,32.8z"/>
	<path class="st0" d="M434.4,14.6c-3.5,12.6-6.5,24.7-11,43.1c-4.4,17.5-7.4,29.6-10.1,41.5h-45.2c1.5-5.6,2.7-10.1,4.1-15.1
		l-0.6-0.3c-7.3,11.5-16.4,16.7-29.1,16.7c-14.1,0-24.1-6.5-19.4-25.9c3.8-15.2,6.1-23.3,8.7-33.6c2.7-10.2,4.6-18.2,6.3-26.4h45.1
		c-3.5,11.7-7,26.5-12,46.2c-0.8,3.1-0.1,4.6,1.9,4.6c1.9,0,3.8-1.9,5.4-8.1C385,31.1,387,23.2,389,14.6L434.4,14.6L434.4,14.6z"/>
	<path class="st0" d="M516.8,66c-7.2,28.7-19.6,34.8-51.4,34.8c-38.7,0-45.9-12.6-36.8-49.1c8.1-32.3,22.2-38.8,52.5-38.8
		c37.5,0,47.4,6.1,41,31.5c-0.5,2.4-1.5,5-2.6,7.9c-5.9-0.3-12.7-0.4-21.4-0.4c-7.8,0-15.2,0.1-19.2,0.4c0.3-1.8,0.9-3.5,1.3-4.7
		c1.9-7.9,1.7-10.2-0.4-10.2c-2.4,0-4,2.2-7.9,17.5c-3.3,13.6-3.6,17.2-0.6,17.2c2.3,0,4.1-4.5,5.5-9.9c0.5-1.8,1-3.7,1.3-5.5
		c5.5,0.3,11.1,0.4,18.6,0.4c7.7,0,14.4-0.3,22-0.4C518.2,60.1,517.6,63.2,516.8,66z"/>
	<path class="st0" d="M575.4,29.2c7.2-11,16.1-16,28.4-16c15.6,0,24.1,8.7,20,25.9c-3.7,15.4-6,23.3-8.6,33.6
		c-2.7,10.4-4.6,18.3-6.2,26.5h-45.3c3.1-11.7,6.8-26.4,11.8-46c0.6-3.1,0.1-4.6-1.8-4.6c-2.2,0-4.1,1.9-5.9,9.6
		c-6.2,24.6-8.1,32.5-10,41h-45.2c3.3-13.2,6.8-26.1,11.7-45.6c5.8-22.8,9.3-38.4,13.1-53.5h45.3c-1.5,5.4-2.8,9.5-4.2,15.2
		c-1.2,4.6-2.4,8.8-3.7,13.7L575.4,29.2z"/>
	<path class="st0" d="M715.9,49.8c-0.8,3.2-2.8,9.4-4,12.4C701.6,62,689.3,62,679.3,62c-5.6,0-10.5,0-14.1,0.1
		c-2.8,11.8-3,15.5,0,15.5c2.6,0,4.1-2.9,5.9-10.6c3.2,0.3,10,0.4,17.3,0.4c7.6,0,15.6-0.1,22.4-0.4c-4.5,23.8-11.9,33.8-48.3,33.8
		c-39,0-47.4-13.1-38.4-48.7C631.9,20.5,646.8,13,678,13C717.2,12.9,722,24.9,715.9,49.8z M676.5,49.3c0.4-1.4,0.6-2.3,0.9-3.2
		c2.2-9,1.9-11.4-1-11.4c-2.6,0-4.4,2.2-7.8,14.6C670.2,49.3,672.6,49.3,676.5,49.3z"/>
	<path class="st0" d="M836.2,54.3c1.9,0,3.6-0.1,5.4-0.3c-1.4,4.6-2.6,9.4-3.7,13.8c-1.5,6.3-2.8,11.2-3.7,16h-4.7
		c-1.2,5.2-2,10.2-3.1,15.2h-54.2c1.3-4.6,2.8-10.2,4.5-15.6c-11.7,0-25.4,0.1-38.2,0.4c4.6-14.5,21.3-70.6,23.8-80.8h41.9
		c-3.6,11.8-10.8,35.4-15.2,51.2c2,0.1,4.2,0.1,6.8,0.1c4-16.4,9.9-41,12.3-51.4h41.6c-4.1,13.8-7.6,27.5-12.5,47.8L836.2,54.3z"/>
	<path class="st1" d="M74.1,175.9c-0.3,1.1,0.4,1.6,2.5,1.6c2.7,0,4.9-0.2,6.7-0.6c-1,4-2.2,10.9-2.8,15.6
		c-3.4,0.8-6.7,1.2-10.9,1.2c-12.3,0-14.6-6.1-12.5-14.6c0.3-1.3,0.7-2.8,1.2-4.4h-1.9c1.2-4.5,2.5-9.4,3.3-13.2l2.3,0.1
		c0.4-1.5,0.8-3,1.2-4.5c2.5,0.1,5.1,0.1,7.9,0.1c2.7,0,5.7-0.1,8.2-0.1c-0.4,1.4-0.9,3-1.4,4.6c3.7,0,7.1-0.1,9.8-0.1
		c-1.2,4.6-2.5,9-3.7,13.7c-1.4-0.1-5.2-0.1-9.7-0.2L74.1,175.9z"/>
	<path class="st1" d="M100.5,193.7c-14.8,0-18.2-5.8-14.8-18.9c3.2-13,9-13.9,20.3-13.9c13.8,0,18.8,3.9,15.5,17.3
		C118.2,191,112.4,193.7,100.5,193.7z M104.7,171.2c-1.2,0-1.8,0.7-2.9,5.1c-1.2,4.7-1,5.5,0.3,5.5c1.2,0,1.8-0.9,2.9-5.4
		C106.2,171.9,106,171.2,104.7,171.2z"/>
	<path class="st1" d="M163,161.5c-1.3,4.7-2.4,9.3-4.1,16.1c-1.6,6.6-2.8,11.1-3.8,15.6h-16.9c0.6-2.1,1-3.8,1.5-5.7l-0.2-0.1
		c-2.7,4.3-6.1,6.2-10.9,6.2c-5.3,0-9-2.4-7.2-9.7c1.4-5.7,2.3-8.7,3.3-12.6c1-3.8,1.7-6.8,2.3-9.9h16.9c-1.3,4.4-2.6,9.9-4.5,17.3
		c-0.3,1.1-0.1,1.7,0.7,1.7c0.7,0,1.4-0.7,2-3c2.4-9.8,3.2-12.8,3.9-16H163z"/>
	<path class="st1" d="M176.6,168.3c2.7-5.3,6.1-7.1,9.3-7.1c0.9,0,1.4,0.1,2.1,0.1c-2.2,6.8-3.6,12.2-5.5,19.8
		c-0.7-0.2-1.3-0.4-2-0.4c-1.8,0-2.7,1.1-3.3,3.4c-0.7,2.9-1.4,5.8-2,9.1H157c1.2-4.4,2.4-9.2,4.2-16.1c1.6-6.6,2.8-11.1,3.7-15.6
		h13.4c-0.8,2.4-1.4,4.5-2.2,6.8L176.6,168.3L176.6,168.3z"/>
	<path class="st1" d="M204.7,167.1c2.8-4.3,6.4-6.1,11.2-6.1c5.7,0,8.4,3.6,6.9,9.5c-1.6,6.2-2.1,8.2-3.2,12.3
		c-1,4-1.8,7.1-2.4,10.4h-17c1.1-4.4,2.5-9.9,4.4-17.2c0.3-1.1,0.1-1.7-0.6-1.7c-0.8,0-1.5,0.7-2.3,3.6c-2.3,9.2-3,12.2-3.7,15.4
		h-16.9c1.2-4.7,2.4-9.3,4.1-16.2c1.6-6.6,2.7-11,3.8-15.5h16.8c-0.6,2.1-1,3.7-1.5,5.5L204.7,167.1z"/>
	<path class="st1" d="M237.9,193.7c-14.8,0-18.1-5.8-14.8-18.9c3.2-13,9-13.9,20.3-13.9c13.8,0,18.8,3.9,15.5,17.3
		C255.7,191,249.9,193.7,237.9,193.7z M242.2,171.2c-1.2,0-1.8,0.7-2.9,5.1c-1.1,4.7-1,5.5,0.3,5.5c1.2,0,1.8-0.9,2.9-5.4
		C243.7,171.9,243.5,171.2,242.2,171.2z"/>
	<path class="st1" d="M280,167.1c2.8-4.3,6.4-6.1,11.2-6.1c5.7,0,8.4,3.6,6.9,9.5c-1.6,6.2-2.1,8.2-3.2,12.3c-1,4-1.8,7.1-2.4,10.4
		h-17c1.1-4.4,2.5-9.9,4.4-17.2c0.3-1.1,0-1.7-0.6-1.7c-0.8,0-1.5,0.7-2.3,3.6c-2.3,9.2-3,12.2-3.7,15.4h-16.9
		c1.2-4.7,2.4-9.3,4.1-16.2c1.6-6.6,2.7-11,3.8-15.5h16.8c-0.6,2.1-1,3.7-1.5,5.5L280,167.1z"/>
	<path class="st1" d="M317.2,169.2c-0.6,2.2-1.2,4.4-1.8,6.8c-0.6,2.4-1.1,4.5-1.6,6.9c-2-0.1-5.7-0.2-8.4-0.2
		c-2.5,0-6.4,0.1-8.5,0.2c0.7-2.4,1.2-4.6,1.9-6.9c0.6-2.4,1.1-4.6,1.5-6.8c2.1,0.2,5.9,0.2,8.4,0.2
		C311.5,169.4,315.2,169.4,317.2,169.2z"/>
	<path class="st1" d="M331,184.4c0.5-2-0.7-2.7-4.7-3.5c-7.8-1.3-9.8-4.3-8-11.5c1.7-6.8,6.7-8.5,17.6-8.5c14.6,0,16.6,3.4,15.3,8.6
		c-0.1,0.8-0.4,1.5-0.7,2.4c-2.2-0.2-5.8-0.4-8.9-0.4c-1.7,0-3.3,0-4.2,0.1c0.1-0.3,0.1-0.5,0.2-0.8c0.4-1.5,0.3-2.3-1-2.3
		c-0.9,0-1.4,0.4-1.6,1.3c-0.4,1.8,0.2,2.6,4.5,3.5c8,1.6,10.3,4,8.4,11.7c-1.7,6.8-6.7,8.7-17.9,8.7c-13.7,0.1-16.7-3-15.2-8.8
		c0.2-0.9,0.5-1.8,0.8-2.8c2.2,0.2,4.6,0.4,8.7,0.4c1.6,0,3-0.1,4-0.1c-0.1,0.3-0.2,0.6-0.3,0.9c-0.4,1.6,0,2.4,1.2,2.4
		C330.3,185.8,330.7,185.4,331,184.4z"/>
	<path class="st1" d="M391.1,161.5c-1.3,4.7-2.5,9.3-4.1,16.1c-1.6,6.6-2.8,11.1-3.8,15.6h-17c0.6-2.1,1-3.8,1.5-5.7l-0.2-0.1
		c-2.7,4.3-6.1,6.2-10.9,6.2c-5.3,0-9-2.4-7.2-9.7c1.4-5.7,2.3-8.7,3.3-12.6c1-3.8,1.7-6.8,2.4-9.9h16.9c-1.3,4.4-2.6,9.9-4.5,17.3
		c-0.3,1.1,0,1.7,0.7,1.7c0.7,0,1.4-0.7,2-3c2.5-9.8,3.2-12.8,3.9-16H391.1z"/>
	<path class="st1" d="M404.7,168.3c2.7-5.3,6-7.1,9.3-7.1c0.9,0,1.4,0.1,2.1,0.1c-2.2,6.8-3.6,12.2-5.5,19.8c-0.7-0.2-1.3-0.4-2-0.4
		c-1.8,0-2.7,1.1-3.3,3.4c-0.7,2.9-1.4,5.8-2,9.1h-18.1c1.2-4.4,2.5-9.2,4.2-16.1c1.6-6.6,2.8-11.1,3.7-15.6h13.4
		c-0.8,2.4-1.4,4.5-2.2,6.8L404.7,168.3L404.7,168.3z"/>
	<path class="st1" d="M431.9,169.2c-0.6,2.2-1.2,4.4-1.8,6.8c-0.6,2.4-1.1,4.5-1.6,6.9c-2-0.1-5.7-0.2-8.4-0.2
		c-2.5,0-6.4,0.1-8.5,0.2c0.7-2.4,1.2-4.6,1.9-6.9c0.6-2.4,1.1-4.6,1.5-6.8c2.1,0.2,5.9,0.2,8.4,0.2
		C426.1,169.4,429.8,169.4,431.9,169.2z"/>
	<path class="st1" d="M447.3,168.3c2.7-5.3,6-7.1,9.3-7.1c0.9,0,1.4,0.1,2.1,0.1c-2.2,6.8-3.6,12.2-5.5,19.8c-0.7-0.2-1.3-0.4-2-0.4
		c-1.8,0-2.7,1.1-3.3,3.4c-0.7,2.9-1.4,5.8-2,9.1h-18.1c1.2-4.4,2.5-9.2,4.2-16.1c1.6-6.6,2.8-11.1,3.7-15.6h13.4
		c-0.8,2.4-1.4,4.5-2.2,6.8L447.3,168.3L447.3,168.3z"/>
	<path class="st1" d="M475.4,166.9c2.7-4.1,6-6,10.7-6c5.9,0,9,3.3,7.5,9.7c-1.4,5.8-2.3,8.7-3.2,12.6c-1,3.9-1.7,6.9-2.3,9.9h-17
		c1.1-4.4,2.5-9.9,4.4-17.2c0.2-1.1,0-1.7-0.7-1.7c-0.8,0-1.5,0.7-2.2,3.6c-2.3,9.2-3,12.2-3.8,15.4h-17c1.2-4.9,2.5-9.8,4.4-17.1
		c2.2-8.5,3.5-14.4,4.9-20.1h17c-0.6,2-1.1,3.6-1.6,5.7c-0.4,1.7-0.9,3.3-1.4,5.1L475.4,166.9z"/>
	<path class="st1" d="M529.6,178.2c-3.2,12.8-9,15.5-20.9,15.5c-14.8,0-18.1-5.8-14.8-18.9c3.2-13,9-13.9,20.3-13.9
		C528,160.9,533,164.8,529.6,178.2z M520.3,149c2.8,3.1,6.6,7.7,7.7,8.6c-0.6,0.7-1.4,1.8-1.9,2.4c-1.3-0.5-4.7-2.3-9.2-4.3
		c-5.5,2.1-9.8,3.8-11.4,4.3c-0.2-0.6-0.4-1.7-0.7-2.4c1.5-1,7.7-5.6,11.9-8.6H520.3z M513,171.2c-1.2,0-1.8,0.7-2.9,5.1
		c-1.1,4.7-1,5.5,0.3,5.5c1.2,0,1.8-0.9,2.9-5.4C514.5,171.9,514.2,171.2,513,171.2z"/>
	<path class="st1" d="M550.8,167.1c2.8-4.3,6.4-6.1,11.2-6.1c5.7,0,8.4,3.6,6.9,9.5c-1.6,6.2-2.1,8.2-3.2,12.3
		c-1,4-1.8,7.1-2.4,10.4h-17c1.2-4.4,2.5-9.9,4.4-17.2c0.3-1.1,0-1.7-0.6-1.7c-0.8,0-1.5,0.7-2.3,3.6c-2.3,9.2-3,12.2-3.7,15.4
		h-16.9c1.2-4.7,2.4-9.3,4.1-16.2c1.6-6.6,2.7-11,3.8-15.5h16.8c-0.6,2.1-1,3.7-1.5,5.5L550.8,167.1z"/>
	<path class="st1" d="M603.4,174.7c-0.3,1.2-1.1,3.5-1.5,4.7c-3.9-0.1-8.5-0.1-12.2-0.1c-2.1,0-3.9,0-5.3,0.1
		c-1.1,4.4-1.1,5.8,0,5.8c1,0,1.5-1.1,2.2-4c1.2,0.1,3.7,0.1,6.5,0.1c2.8,0,5.9-0.1,8.4-0.1c-1.7,8.9-4.5,12.7-18.1,12.7
		c-14.6,0-17.8-4.9-14.4-18.2c2.9-11.9,8.5-14.7,20.2-14.7C603.8,160.9,605.7,165.3,603.4,174.7z M588.6,174.5
		c0.1-0.5,0.2-0.9,0.3-1.2c0.8-3.4,0.7-4.3-0.4-4.3c-1,0-1.6,0.8-2.9,5.5C586.2,174.5,587.1,174.5,588.6,174.5z"/>
	<g>
		<path class="st1" d="M44.2,157.6c-0.6,4.5-3.2,26.6-3.7,35.5H21.9c0.4-1.5,1-3.6,1.7-6h-1.4h-1.7c-0.6,2.5-1,4.5-1.3,6H1.2
			c3.9-9,12.2-31.1,13.5-35.5H44.2z M36.9,156.3c-3.2-0.8-17.2-3.6-20.3-4.1c1.1-2.2,2.6-5.4,3.4-7.3c2.6,1.3,15.7,6.9,18.4,7.9
			C38,153.7,37.4,155.1,36.9,156.3z M25.6,178.3c0.6-3,1.2-6.1,1.6-9c0.1-1.6,0.5-3.8,0.8-5.7h-0.3l-1.9,5.7c-1,2.9-2,6-2.9,9h1.5
			H25.6z"/>
	</g>
</g>
</svg>
